<svg
            xmlns="http://www.w3.org/2000/svg"
            viewBox="0 0 24 24"
            className="w-12 h-12"
          >
            {/* Cœur de fond */}
            <path
              fill="#E53E3E"
              d="M12 21.35l-1.45-1.32C5.4 15.36 2 12.28 2 8.5 2 5.42 4.42 3 7.5 3c1.74 0 3.41.81 4.5 2.09C13.09 3.81 14.76 3 16.5 3 19.58 3 22 5.42 22 8.5c0 3.78-3.4 6.86-8.55 11.54L12 21.35z"
            />

            {/* Ligne électrocardiogramme (fond blanc transparent) */}
            <path
              fill="none"
              stroke="#FFFFFF"
              strokeWidth="1.5"
              strokeLinecap="round"
              strokeLinejoin="round"
              d="M3 12h4l1.5-3 2 6 2-8 1.5 5h4"
            />

            {/* Petite croix médicale en bas à droite */}
            <g transform="translate(14, 14)">
              <circle cx="4" cy="4" r="5" fill="#FFFFFF" />
              <path
                d="M4 1.5v5M1.5 4h5"
                stroke="#E53E3E"
                strokeWidth="1.5"
                strokeLinecap="round"
              />
            </g>
          </svg>